<svg xmlns="http://www.w3.org/2000/svg" id="Group_445" data-name="Group 445" width="135.596" height="49.801" viewBox="0 0 135.596 49.801">
  <path id="Path_618" data-name="Path 618" d="M3.583-9.827c.684,0,1.231-.091,1.641-.091a18.911,18.911,0,0,1,3.146.274,25.705,25.705,0,0,0,3.967.365c3.875,0,6.292-1,7.842-3.328,1.687-2.508,2.189-5.334,2.189-11.854,0-5.79-.5-9.529-1.5-11.626-1.55-3.1-4.377-4.651-8.389-4.651-.5,0-.957.046-2.827.182-1.824.137-4.286.228-5.38.228-1.55,0-1.687,0-2.006.365a2.5,2.5,0,0,0-.821,1.5.518.518,0,0,0,.137.365c.957,1,.957,1.049,1,2.508l.046,1.322v19.013c0,1.733,0,1.915-.274,2.234-.775,1.049-.775,1.049-.775,1.322a1.846,1.846,0,0,0,1.6,1.869ZM9.966-34.4c0-2.28,0-2.28.274-2.69a1.453,1.453,0,0,1,1.322-.638c1.094,0,2.234,1.231,2.6,2.781a43.645,43.645,0,0,1,.41,6.474v8.116a18.946,18.946,0,0,1-.5,5.517,3.009,3.009,0,0,1-2.553,2.462,1.367,1.367,0,0,1-1.322-.912c-.228-.5-.228-.5-.228-3.283ZM39.739-9.782c.821,0,1-.091,1.413-.593a2.427,2.427,0,0,0,.5-1.14.557.557,0,0,0-.137-.41c-.866-1-.866-1-.866-3.055V-26.743c0-2.827-.137-3.556-1-4.651-1.185-1.55-3.283-2.28-6.429-2.28a9.961,9.961,0,0,0-5.745,1.55c-.912.547-1.322,1.049-1.322,1.5,0,1.094,2.006,2.964,3.192,2.964.775,0,1-.228,1.641-1.687A2.13,2.13,0,0,1,32.854-30.8c1.14,0,1.6.73,1.6,2.416v1.641c-.866.182-1.915.456-3.556.957-4.6,1.459-6.565,3.921-6.565,8.344,0,4.97,2.462,7.888,6.611,7.888a7.067,7.067,0,0,0,3.967-1.185c.365.775.593.957,1.413.957Zm-8.891-5.836v-4.195c0-1.778,1.049-2.918,3.6-4.012v8.252c0,1.55-.091,1.915-.547,2.416a1.628,1.628,0,0,1-1.231.547C31.349-12.609,30.848-13.475,30.848-15.618Zm13.131,1.824c-.046,2.964,1.55,4.331,4.97,4.331,1.687,0,2.827-.365,3.328-1.049a4.77,4.77,0,0,0,.593-1.641c0-.274-.091-.365-.5-.547l-1.14.137a2.83,2.83,0,0,1-.547-.365c-.365-.41-.456-.957-.456-2.736V-30.892h1.368a1.6,1.6,0,0,0,1.55-1.687c0-.41-.228-.5-1.185-.5H50.225a6.459,6.459,0,0,1,.319-2.052c.547-1.55.547-1.55.547-1.869A1.043,1.043,0,0,0,50-38.05a2.977,2.977,0,0,0-1.869.912L45.894-35q-.957.889-1.915,1.641c-1.459,1.185-1.6,1.368-1.6,1.915,0,.41.228.547.775.547h.866v14.5Zm24.666.821a2.141,2.141,0,0,0,.319-.912c0-.456-.912-1.185-1.5-1.185-.274,0-.593.228-1.231.866a4.767,4.767,0,0,1-3.465,1.824,2.719,2.719,0,0,1-2.325-1.277,5.535,5.535,0,0,1-.456-2.918v-4.331l7.569-3.465c1.55-.684,2.1-1.413,2.1-2.6a7.547,7.547,0,0,0-1.368-3.921c-1.368-1.915-3.283-2.781-6.155-2.781a8.6,8.6,0,0,0-6.976,2.918c-1.413,1.824-2.006,4.514-2.006,9.164,0,5.015.775,8.024,2.553,10.031a7.9,7.9,0,0,0,6.11,2.371,12.431,12.431,0,0,0,4.286-.684,2.81,2.81,0,0,0,1.641-1.413ZM59.982-24.235v-3.647c0-2.143.5-2.918,1.869-2.918,1.277,0,1.824.73,1.824,2.371v1.094c0,1.277-.182,1.55-1.322,2.052Z" transform="translate(-1.44 41.424)" fill="#e0067a"/>
  <path id="Path_619" data-name="Path 619" d="M1.368-12.288v9.219h1.19V-7.391H7.017v4.322h1.2v-9.219h-1.2V-8.43H2.558v-3.857ZM14.9-7.131c0-1.327-.492-2.708-2.517-2.708a4.109,4.109,0,0,0-2.175.588l.274.793A3.3,3.3,0,0,1,12.2-8.95a1.365,1.365,0,0,1,1.5,1.532v.137c-2.558-.014-3.98.862-3.98,2.462a1.886,1.886,0,0,0,2.024,1.9A2.466,2.466,0,0,0,13.774-3.9h.041l.1.834h1.094A9.321,9.321,0,0,1,14.9-4.655ZM13.733-5.3a1.256,1.256,0,0,1-.068.383,1.647,1.647,0,0,1-1.6,1.108,1.065,1.065,0,0,1-1.135-1.149c0-1.286,1.491-1.518,2.8-1.491ZM15.8-9.689l2.517,6.62h1.149l2.6-6.62H20.8l-1.286,3.72c-.219.6-.41,1.149-.561,1.7h-.041a17.024,17.024,0,0,0-.533-1.7l-1.3-3.72ZM28.259-6.16a4.539,4.539,0,0,0,.041-.561c0-1.217-.574-3.119-2.736-3.119-1.929,0-3.1,1.573-3.1,3.57a3.085,3.085,0,0,0,3.255,3.351,5.316,5.316,0,0,0,2.2-.424L27.712-4.2a4.353,4.353,0,0,1-1.833.342,2.121,2.121,0,0,1-2.271-2.3Zm-4.637-.862a2,2,0,0,1,1.847-1.956,1.714,1.714,0,0,1,1.669,1.956Zm8.193-2.667,2.448,6.1a1.05,1.05,0,0,1,.082.315.864.864,0,0,1-.1.287,3.649,3.649,0,0,1-1.012,1.34,3.184,3.184,0,0,1-1.053.588l.3,1.012a3.262,3.262,0,0,0,1.477-.78c.821-.711,1.409-1.874,2.271-4.144l1.806-4.719H36.767L35.454-5.8c-.164.479-.3.985-.424,1.381H35c-.109-.4-.274-.916-.424-1.354l-1.45-3.912Zm9.848-.15a3.233,3.233,0,0,0-3.283,3.515,3.147,3.147,0,0,0,3.173,3.406,3.235,3.235,0,0,0,3.3-3.515A3.135,3.135,0,0,0,41.664-9.839Zm-.027.9c1.423,0,1.983,1.423,1.983,2.544,0,1.491-.862,2.571-2.011,2.571-1.176,0-2.011-1.094-2.011-2.544C39.6-7.623,40.214-8.936,41.636-8.936Zm10.272-.752H50.7v4.062a1.76,1.76,0,0,1-.109.616,1.74,1.74,0,0,1-1.587,1.094c-1.094,0-1.477-.848-1.477-2.106V-9.689h-1.2v3.871c0,2.325,1.245,2.9,2.284,2.9A2.491,2.491,0,0,0,50.8-4.149h.027L50.9-3.069h1.067c-.041-.52-.055-1.122-.055-1.806ZM56.846-3.1a19.208,19.208,0,0,0,2.161.109,5.679,5.679,0,0,0,4.076-1.327A4.876,4.876,0,0,0,64.41-7.9a4.246,4.246,0,0,0-1.3-3.31,5.28,5.28,0,0,0-3.734-1.149,17.045,17.045,0,0,0-2.53.191Zm1.19-8.193a6.762,6.762,0,0,1,1.4-.123c2.517,0,3.748,1.381,3.734,3.556,0,2.489-1.381,3.912-3.926,3.912a7.514,7.514,0,0,1-1.2-.068Zm9.082,8.221v-6.62h-1.2v6.62Zm-.6-9.233a.733.733,0,0,0-.752.752.716.716,0,0,0,.725.739.711.711,0,0,0,.766-.739A.714.714,0,0,0,66.517-12.3Zm2.134,8.918a3.774,3.774,0,0,0,1.86.465c1.573,0,2.476-.834,2.476-2,0-.985-.588-1.559-1.737-2-.862-.328-1.258-.574-1.258-1.122,0-.492.4-.9,1.108-.9a2.576,2.576,0,0,1,1.354.383l.3-.875a3.3,3.3,0,0,0-1.628-.41A2.042,2.042,0,0,0,68.842-7.9c0,.793.561,1.45,1.751,1.874.889.328,1.231.643,1.231,1.217,0,.547-.41.985-1.286.985A3.155,3.155,0,0,1,68.952-4.3Zm5.882.315h1.2V-7.063a1.457,1.457,0,0,1,.082-.574,1.729,1.729,0,0,1,1.614-1.2c1.135,0,1.532.9,1.532,1.97v3.8h1.2V-7.008c0-2.284-1.423-2.831-2.312-2.831a2.477,2.477,0,0,0-1.231.342,2.234,2.234,0,0,0-.862.848h-.027V-12.78h-1.2ZM87.444-6.16a4.544,4.544,0,0,0,.041-.561c0-1.217-.574-3.119-2.736-3.119-1.929,0-3.1,1.573-3.1,3.57A3.085,3.085,0,0,0,84.9-2.918a5.316,5.316,0,0,0,2.2-.424L86.9-4.2a4.353,4.353,0,0,1-1.833.342,2.121,2.121,0,0,1-2.271-2.3Zm-4.637-.862a2,2,0,0,1,1.847-1.956,1.714,1.714,0,0,1,1.669,1.956ZM93.49-12.78v3.953h-.027a2.214,2.214,0,0,0-2-1.012c-1.614,0-2.982,1.354-2.968,3.556,0,2.011,1.231,3.365,2.831,3.365a2.449,2.449,0,0,0,2.257-1.3h.027l.055,1.149h1.081c-.041-.451-.055-1.122-.055-1.71v-8Zm0,6.935a2.09,2.09,0,0,1-.055.52,1.809,1.809,0,0,1-1.764,1.436c-1.3,0-1.956-1.108-1.956-2.448,0-1.464.739-2.558,1.983-2.558a1.77,1.77,0,0,1,1.737,1.4,2.124,2.124,0,0,1,.055.506Zm5.2.15-.014-.342a2.731,2.731,0,0,1,.78-2.024,3.671,3.671,0,0,0,1.176-2.38,2.021,2.021,0,0,0-2.284-2.011,3.621,3.621,0,0,0-1.956.547l.328.862a2.431,2.431,0,0,1,1.381-.424c.862.014,1.3.479,1.3,1.176A3.066,3.066,0,0,1,98.442-8.4a3.111,3.111,0,0,0-.848,2.353l.027.356Zm-.561,2.777a.8.8,0,0,0,.821-.848.8.8,0,0,0-.807-.862.809.809,0,0,0-.821.862.8.8,0,0,0,.793.848Z" transform="translate(17.305 49.847)" fill="#e0067a"/>
  <path id="Path_617" data-name="Path 617" d="M3.583-10.044c.684,0,1.231-.091,1.641-.091a18.911,18.911,0,0,1,3.146.274,25.705,25.705,0,0,0,3.967.365c3.875,0,6.292-1,7.842-3.328,1.687-2.508,2.189-5.334,2.189-11.854,0-5.79-.5-9.529-1.5-11.626-1.55-3.1-4.377-4.651-8.389-4.651-.5,0-.957.046-2.827.182-1.824.137-4.286.228-5.38.228-1.55,0-1.687,0-2.006.365a2.5,2.5,0,0,0-.821,1.5.518.518,0,0,0,.137.365c.957,1,.957,1.049,1,2.508l.046,1.322v19.013c0,1.733,0,1.915-.274,2.234-.775,1.049-.775,1.049-.775,1.322a1.846,1.846,0,0,0,1.6,1.869ZM9.966-34.619c0-2.28,0-2.28.274-2.69a1.453,1.453,0,0,1,1.322-.638c1.094,0,2.234,1.231,2.6,2.781a43.645,43.645,0,0,1,.41,6.474v8.116a18.946,18.946,0,0,1-.5,5.517A3.009,3.009,0,0,1,11.516-12.6a1.367,1.367,0,0,1-1.322-.912c-.228-.5-.228-.5-.228-3.283Zm18.648-.228a3.415,3.415,0,0,0,3.42-3.42,3.417,3.417,0,0,0-3.328-3.374,3.416,3.416,0,0,0-3.465,3.374A3.376,3.376,0,0,0,28.614-34.847ZM30.8-10a1.753,1.753,0,0,0,1.869-1.641,1.21,1.21,0,0,0-.228-.638,3.659,3.659,0,0,1-.775-2.918V-30.88c0-2.462-.274-3.009-1.6-3.009a19.145,19.145,0,0,0-3.647.547c-1.185.319-1.915,1.049-1.915,1.869a2.2,2.2,0,0,0,.274.957,3.2,3.2,0,0,1,.638,2.234v12.994c0,1.6-.137,2.1-.684,2.781-.319.365-.41.547-.41.73a2.156,2.156,0,0,0,.593,1.277,1.043,1.043,0,0,0,1.094.5Zm9.62-17.736c-.775-.866-1.049-1.322-1.049-1.869a1.527,1.527,0,0,1,1.459-1.413,1.924,1.924,0,0,1,1.641,1.231c.684,1.322.821,1.459,1.368,1.459,1.049,0,2.872-1.55,2.872-2.462a1.992,1.992,0,0,0-.729-1.231,7.336,7.336,0,0,0-5.2-1.869c-3.875,0-6.793,2.371-6.793,5.562a7.548,7.548,0,0,0,2.28,5.243l4.331,4.742c1.824,1.961,2.1,2.416,2.1,3.556a2.345,2.345,0,0,1-2.325,2.371A2.7,2.7,0,0,1,37.961-14.1c-.729-1.322-1-1.641-1.5-1.641-1,0-3.009,1.869-3.009,2.827,0,1.6,3.6,3.511,6.566,3.511a7.551,7.551,0,0,0,7.842-7.386,6.142,6.142,0,0,0-1.459-4.1c-.775-1.049-1.641-2.143-2.1-2.644ZM55.423-10c.775,0,.957-.046,1.368-.456a1.893,1.893,0,0,0,.547-1.185.919.919,0,0,0-.137-.5,4.19,4.19,0,0,1-.821-3.146V-26.913c0-2.371.41-3.055,1.824-3.055a1.755,1.755,0,0,1,1.6.821,4.975,4.975,0,0,1,.228,2.1v11.672c0,1.6-.091,2.006-.547,2.69-.5.684-.5.684-.5.912a2.266,2.266,0,0,0,.593,1.322A1.062,1.062,0,0,0,60.621-10h4.651a1.621,1.621,0,0,0,1.459-.593,1.814,1.814,0,0,0,.5-1.14.681.681,0,0,0-.137-.456c-.866-1.094-.866-1.094-.866-3.146v-9.711l.046-1.778A8.942,8.942,0,0,0,65.59-30.7a5.635,5.635,0,0,0-5.107-3.192,7.633,7.633,0,0,0-4.1,1.368v-4.331a2.769,2.769,0,0,1,.593-2.006A1.358,1.358,0,0,0,57.2-39.5c0-.73-.775-1.687-1.368-1.687a4.381,4.381,0,0,0-1.049.228A15.045,15.045,0,0,1,52.6-40.5c-1.778.228-2.189.319-2.508.547a2.377,2.377,0,0,0-.821,1.5,1.455,1.455,0,0,0,.274.729,2.951,2.951,0,0,1,.638,2.371v20.061a4.053,4.053,0,0,1-.684,2.872,1.454,1.454,0,0,0-.319.775,1.952,1.952,0,0,0,.456,1.049A1.1,1.1,0,0,0,50.818-10Z" transform="translate(68.364 41.64)" fill="#fff"/>
</svg>